<svg width="120" height="120" viewBox="0 0 120 120" fill="none" xmlns="http://www.w3.org/2000/svg">
<path fill-rule="evenodd" clip-rule="evenodd" d="M108.748 20.0496C109.326 20.1719 109.798 20.6218 109.944 21.1905C110.018 21.4749 110.019 84.3549 109.946 84.6362C109.801 85.1911 109.362 85.6285 108.805 85.772C108.634 85.8161 106.751 85.8208 88.441 85.8208H68.2656V91.4746V97.1284H75.6365C83.9636 97.1284 83.1778 97.1044 83.5853 97.3679C84.6897 98.0825 84.4797 99.7455 83.2301 100.178L83.0299 100.247H59.9998H36.9697L36.7695 100.178C35.52 99.7455 35.3099 98.0825 36.4143 97.3679C36.8218 97.1044 36.036 97.1284 44.3631 97.1284H51.734V91.4746V85.8208H31.5586C13.2481 85.8208 11.3654 85.8161 11.1943 85.772C10.6374 85.6285 10.1984 85.1911 10.0537 84.6362C9.9821 84.3604 9.9821 21.4631 10.0537 21.1874C10.1988 20.6313 10.6763 20.1727 11.2375 20.0507C11.5459 19.9839 108.432 19.9827 108.748 20.0496ZM13.1408 82.6865V52.912V23.1374H59.9998H106.859V52.912V82.6865H59.9998H13.1408Z" fill="white"/>
<path d="M47.7642 64.0466C48.1791 64.0706 48.5545 64.291 48.8228 64.6082C50.5089 66.602 49.9415 67.2032 49.1626 68.6572C46.9613 72.7669 40.7092 70.6154 40.4277 70.4851C39.8774 70.2305 39.3912 70.0145 39.3478 70.0054C39.0505 69.9431 39.4364 69.6706 39.9214 69.6011C42.5943 69.2168 42.2008 68.4041 43.8876 65.7693C44.4676 64.8633 46.015 63.9453 47.7642 64.0466Z" fill="white"/>
<path d="M70.9884 41.961C72.5544 40.4025 74.1883 38.7766 74.6194 38.3484C77.8668 35.122 80.0672 34.3374 80.4654 36.5099C80.9806 39.3233 70.5005 48.4592 61.0176 56.7248C57.8287 59.5047 54.4432 62.4561 50.9328 65.5502C50.603 65.8409 49.9674 65.5431 49.7532 65.1592C49.2128 64.1907 49.5314 63.2528 50.3187 62.4716L70.9884 41.961Z" fill="white"/>
</svg>
