<svg width="120" height="120" viewBox="0 0 120 120" fill="none" xmlns="http://www.w3.org/2000/svg">
<path fill-rule="evenodd" clip-rule="evenodd" d="M108.748 20.0496C109.326 20.1719 109.798 20.6218 109.944 21.1905C110.018 21.4749 110.019 84.3549 109.946 84.6362C109.801 85.1911 109.362 85.6285 108.805 85.772C108.634 85.8161 106.751 85.8208 88.441 85.8208H68.2656V91.4746V97.1284H75.6365C83.9636 97.1284 83.1778 97.1044 83.5853 97.3679C84.6897 98.0826 84.4797 99.7455 83.2301 100.178L83.0299 100.247H59.9998H36.9697L36.7695 100.178C35.52 99.7455 35.3099 98.0826 36.4143 97.3679C36.8218 97.1044 36.036 97.1284 44.3631 97.1284H51.734V91.4746V85.8208H31.5586C13.2481 85.8208 11.3654 85.8161 11.1943 85.772C10.6374 85.6285 10.1984 85.1911 10.0537 84.6362C9.9821 84.3604 9.9821 21.4631 10.0537 21.1874C10.1988 20.6313 10.6763 20.1727 11.2375 20.0507C11.5459 19.9839 108.432 19.9827 108.748 20.0496ZM13.1408 82.6865V52.912V23.1374H59.9998H106.859V52.912V82.6865H59.9998H13.1408Z" fill="white"/>
<path d="M66.3604 35.9785C66.3604 35.9942 66.1039 36.924 65.7901 38.045C65.4766 39.1659 64.9865 40.9196 64.701 41.9422L64.5723 42.4027C64.3152 43.322 64.0354 44.3227 63.9057 44.7847C63.7543 45.3255 63.3657 46.715 63.042 47.8725C62.7187 49.03 62.3935 50.1919 62.3199 50.4538C62.246 50.7157 61.8381 52.1745 61.4133 53.6954C60.0604 58.5378 58.6173 63.7 58.5096 64.0811C58.4089 64.4378 57.6396 67.1894 57.1397 68.9821C57.0052 69.4639 56.882 69.8891 56.8659 69.9268L56.836 69.9961H55.2223C53.8056 69.9961 53.6086 69.9906 53.6086 69.9497C53.6086 69.9245 53.8772 68.9459 54.2056 67.7758C54.8695 65.4101 55.9476 61.5667 56.7283 58.7809C57.0103 57.7752 57.4889 56.0675 57.7922 54.9859C58.0954 53.9043 58.3975 52.8258 58.4635 52.5891C58.5292 52.3527 58.7849 51.4398 59.0315 50.5612C59.2785 49.6825 59.5617 48.6729 59.6608 48.3181L60.6606 44.7536C61.1105 43.1481 61.8448 40.5279 62.292 38.9311C62.7392 37.3338 63.1109 36.01 63.1183 35.9887C63.1353 35.9419 66.3604 35.9317 66.3604 35.9785Z" fill="white"/>
<path d="M50.9966 44.072V46.0786L49.9598 46.5042C49.3892 46.7382 48.4873 47.1087 47.9548 47.3274C45.5627 48.3095 43.6732 49.0847 40.734 50.2902C39.9313 50.6194 39.0463 50.9832 38.7675 51.0984C38.4886 51.2137 37.7142 51.5319 37.0468 51.8052C36.3789 52.0789 35.5703 52.4105 35.249 52.5423C34.928 52.6744 34.4525 52.8691 34.1925 52.9753C33.8476 53.1165 33.7355 53.1743 33.7776 53.19C33.8095 53.2018 34.3196 53.4123 34.9111 53.6573C40.4099 55.9353 45.1619 57.903 46.0956 58.2881C46.6828 58.53 50.1903 59.9821 50.6281 60.1642L50.9813 60.3113L50.9891 62.3266C50.9934 63.4353 50.9899 64.3423 50.9805 64.3423C50.9714 64.3423 49.4883 63.7118 47.6849 62.9409C43.7574 61.2627 41.2139 60.1752 40.5035 59.8708C40.216 59.7477 38.2114 58.8906 36.0482 57.9664C33.885 57.0417 31.4583 56.0045 30.6555 55.6616L29.196 55.0374L29.1881 53.1499L29.1798 51.2624L29.2648 51.2239C29.3112 51.2027 30.0479 50.8908 30.9013 50.5309C31.7548 50.171 33.8842 49.2723 35.6332 48.5341C37.0019 47.9561 38.6078 47.2781 39.6545 46.8362L40.3804 46.5298C41.2426 46.166 42.6597 45.5673 43.53 45.2C44.4004 44.8327 45.9422 44.1817 46.9561 43.7538C47.9701 43.3259 49.2767 42.7725 49.8599 42.5235C50.4428 42.275 50.9372 42.0701 50.9584 42.0685C50.9887 42.0657 50.9966 42.4854 50.9966 44.072Z" fill="white"/>
<path d="M69.4101 42.2612C69.6677 42.369 70.321 42.6439 70.8618 42.8724C73.5968 44.0279 82.1882 47.6554 82.523 47.7958C82.7342 47.8847 83.3493 48.1439 83.8901 48.3724C84.4309 48.6009 86.0694 49.2932 87.5313 49.9102C88.9933 50.5273 90.3104 51.0843 90.4583 51.1472L90.7273 51.262L90.7195 53.1491L90.7116 55.0366L89.6823 55.4767C89.116 55.7186 86.9382 56.6492 84.8427 57.5451L83.5163 58.112C81.5593 58.9484 79.202 59.9558 77.7447 60.5783C72.8566 62.6672 70.5184 63.6666 69.687 64.0229C69.2775 64.1987 68.9354 64.3423 68.9263 64.3423C68.9177 64.3423 68.9137 63.4349 68.9181 62.3262L68.9259 60.3101L70.662 59.5899C71.6169 59.1943 72.7438 58.7266 73.1666 58.5516C73.589 58.3766 74.8747 57.8433 76.0239 57.367C77.1732 56.8907 78.5077 56.3377 78.9891 56.1383C79.4709 55.9389 80.3141 55.5892 80.8636 55.3611C84.2366 53.9605 85.9955 53.2317 86.0997 53.1912C86.1437 53.1739 86.0611 53.1283 85.7614 53.0056C85.5436 52.9163 84.6598 52.5533 83.7981 52.1985C82.9359 51.8441 81.968 51.4461 81.647 51.3144C80.0443 50.656 76.8043 49.3246 74.5644 48.4039C73.187 47.8375 71.7491 47.2464 71.3687 47.0902C70.9884 46.9341 70.2801 46.643 69.7939 46.4432L68.9106 46.0802V44.0728C68.9106 42.9684 68.9177 42.0653 68.9259 42.0653C68.9346 42.0653 69.1525 42.1534 69.4101 42.2612Z" fill="white"/>
</svg>
