<svg width="120" height="120" viewBox="0 0 120 120" fill="none" xmlns="http://www.w3.org/2000/svg">
<path fill-rule="evenodd" clip-rule="evenodd" d="M108.748 20.0496C109.326 20.1719 109.798 20.6218 109.944 21.1905C110.017 21.4749 110.019 84.3549 109.946 84.6362C109.801 85.1911 109.362 85.6285 108.805 85.772C108.634 85.8161 106.751 85.8208 88.441 85.8208H68.2656V91.4746V97.1284H75.6365C83.9636 97.1284 83.1778 97.1044 83.5853 97.3679C84.6897 98.0825 84.4796 99.7455 83.2301 100.178L83.0299 100.247H59.9998H36.9697L36.7695 100.178C35.52 99.7455 35.3099 98.0825 36.4143 97.3679C36.8218 97.1044 36.036 97.1284 44.3631 97.1284H51.734V91.4746V85.8208H31.5586C13.2481 85.8208 11.3654 85.8161 11.1943 85.772C10.6374 85.6285 10.1984 85.1911 10.0537 84.6362C9.9821 84.3604 9.9821 21.4631 10.0537 21.1874C10.1988 20.6313 10.6763 20.1727 11.2375 20.0507C11.5459 19.9839 108.432 19.9827 108.748 20.0496ZM13.1408 82.6865V52.912V23.1374H59.9998H106.859V52.912V82.6865H59.9998H13.1408Z" fill="white"/>
<path fill-rule="evenodd" clip-rule="evenodd" d="M64.4065 31.896C64.4065 31.9374 64.2884 32.0199 64.1441 32.0794C62.9623 32.5662 62.5431 33.3476 61.8627 36.3317C60.8606 40.7269 59.4102 43.2478 56.163 46.238C53.3053 48.8697 48.3961 51.7677 42.9348 54.0468C40.8499 54.917 40.1672 55.6019 39.7907 57.2014C39.7323 57.4492 39.6548 57.6519 39.6186 57.6519C39.5824 57.6519 39.5528 58.1733 39.5528 58.8105C39.5528 59.4512 39.588 59.969 39.6315 59.969C39.6748 59.969 39.7371 60.127 39.7699 60.3201C39.9529 61.3978 41.2907 63.1076 42.5071 63.8184C44.0735 64.7337 45.0194 64.8232 46.7474 64.2195L47.9052 63.8148L48.2564 64.1936C48.733 64.7079 49.3402 65.0174 50.2361 65.2028C51.6405 65.4934 51.3424 65.0862 53.1299 69.1565C54.9228 73.2387 55.121 73.5859 55.8949 74.0004C56.0672 74.0926 56.2082 74.198 56.2082 74.2345C56.2082 74.3265 57.2228 74.3182 57.2582 74.2259C57.274 74.1846 57.7725 73.9682 58.3657 73.7448C58.959 73.5216 60.0075 73.1278 60.6957 72.8697C62.5701 72.1666 62.9216 71.9071 63.0687 71.1177C63.2053 70.3847 62.898 69.9225 61.8143 69.2305C60.8882 68.6391 60.8811 68.6288 59.8701 66.3591C58.2393 62.6983 58.205 62.5988 58.3719 62.0012C58.7063 60.8037 59.9894 60.3726 63.2416 60.365C67.2508 60.3557 69.6915 61.0867 73.6845 63.4933C77.6032 65.8549 79.5122 65.4669 80.1853 62.1717C80.264 61.7862 80.3576 61.458 80.3932 61.4423C80.4838 61.4022 80.4747 57.5662 80.384 57.5662C80.3434 57.5662 80.2855 57.3032 80.2555 56.9819C79.4026 47.8554 72.1362 34.7075 66.5793 32.2359C66.2624 32.095 65.9356 31.9438 65.8532 31.9C65.6625 31.7988 64.4065 31.7953 64.4065 31.896ZM76.2413 58.9907C77.0162 53.0173 71.4211 40.4661 66.5378 37.2234C65.5807 36.5878 65.3579 37.0339 65.3565 39.5876C65.3525 46.9011 69.8439 56.4561 74.8094 59.6978C75.8879 60.4018 76.0699 60.3119 76.2413 58.9907Z" fill="white"/>
</svg>
