<svg id="visual" viewBox="0 0 5000 3000" width="5000" height="3000" xmlns="http://www.w3.org/2000/svg" xmlns:xlink="http://www.w3.org/1999/xlink" version="1.1"><path d="M3372 3000L3317 2928.5C3262 2857 3152 2714 3129 2571.2C3106 2428.3 3170 2285.7 3225 2142.8C3280 2000 3326 1857 3390.2 1714.2C3454.3 1571.3 3536.7 1428.7 3554.8 1285.8C3573 1143 3527 1000 3477.7 857.2C3428.3 714.3 3375.7 571.7 3392.5 428.8C3409.3 286 3495.7 143 3538.8 71.5L3582 0L5000 0L5000 71.5C5000 143 5000 286 5000 428.8C5000 571.7 5000 714.3 5000 857.2C5000 1000 5000 1143 5000 1285.8C5000 1428.7 5000 1571.3 5000 1714.2C5000 1857 5000 2000 5000 2142.8C5000 2285.7 5000 2428.3 5000 2571.2C5000 2714 5000 2857 5000 2928.5L5000 3000Z" fill="#1e6293"></path><path d="M3421 3000L3404.5 2928.5C3388 2857 3355 2714 3409 2571.2C3463 2428.3 3604 2285.7 3599 2142.8C3594 2000 3443 1857 3471.3 1714.2C3499.7 1571.3 3707.3 1428.7 3804.5 1285.8C3901.7 1143 3888.3 1000 3832 857.2C3775.7 714.3 3676.3 571.7 3618.5 428.8C3560.7 286 3544.3 143 3536.2 71.5L3528 0L5000 0L5000 71.5C5000 143 5000 286 5000 428.8C5000 571.7 5000 714.3 5000 857.2C5000 1000 5000 1143 5000 1285.8C5000 1428.7 5000 1571.3 5000 1714.2C5000 1857 5000 2000 5000 2142.8C5000 2285.7 5000 2428.3 5000 2571.2C5000 2714 5000 2857 5000 2928.5L5000 3000Z" fill="#184c76"></path><path d="M3707 3000L3761.8 2928.5C3816.7 2857 3926.3 2714 4000.5 2571.2C4074.7 2428.3 4113.3 2285.7 4089.3 2142.8C4065.3 2000 3978.7 1857 3922.3 1714.2C3866 1571.3 3840 1428.7 3821.8 1285.8C3803.7 1143 3793.3 1000 3772.7 857.2C3752 714.3 3721 571.7 3782.5 428.8C3844 286 3998 143 4075 71.5L4152 0L5000 0L5000 71.5C5000 143 5000 286 5000 428.8C5000 571.7 5000 714.3 5000 857.2C5000 1000 5000 1143 5000 1285.8C5000 1428.7 5000 1571.3 5000 1714.2C5000 1857 5000 2000 5000 2142.8C5000 2285.7 5000 2428.3 5000 2571.2C5000 2714 5000 2857 5000 2928.5L5000 3000Z" fill="#10385b"></path><path d="M4208 3000L4236.7 2928.5C4265.3 2857 4322.7 2714 4318.8 2571.2C4315 2428.3 4250 2285.7 4200 2142.8C4150 2000 4115 1857 4148.7 1714.2C4182.3 1571.3 4284.7 1428.7 4319.7 1285.8C4354.7 1143 4322.3 1000 4273.2 857.2C4224 714.3 4158 571.7 4149.8 428.8C4141.7 286 4191.3 143 4216.2 71.5L4241 0L5000 0L5000 71.5C5000 143 5000 286 5000 428.8C5000 571.7 5000 714.3 5000 857.2C5000 1000 5000 1143 5000 1285.8C5000 1428.7 5000 1571.3 5000 1714.2C5000 1857 5000 2000 5000 2142.8C5000 2285.7 5000 2428.3 5000 2571.2C5000 2714 5000 2857 5000 2928.5L5000 3000Z" fill="#082541"></path><path d="M4638 3000L4619.7 2928.5C4601.3 2857 4564.7 2714 4535.3 2571.2C4506 2428.3 4484 2285.7 4482.2 2142.8C4480.3 2000 4498.7 1857 4541.5 1714.2C4584.3 1571.3 4651.7 1428.7 4688 1285.8C4724.3 1143 4729.7 1000 4695.7 857.2C4661.7 714.3 4588.3 571.7 4564.8 428.8C4541.3 286 4567.7 143 4580.8 71.5L4594 0L5000 0L5000 71.5C5000 143 5000 286 5000 428.8C5000 571.7 5000 714.3 5000 857.2C5000 1000 5000 1143 5000 1285.8C5000 1428.7 5000 1571.3 5000 1714.2C5000 1857 5000 2000 5000 2142.8C5000 2285.7 5000 2428.3 5000 2571.2C5000 2714 5000 2857 5000 2928.5L5000 3000Z" fill="#011329"></path></svg>